<mxfile host="app.diagrams.net" modified="2024-03-18T18:33:49.171Z" agent="Mozilla/5.0 (Windows NT 10.0; Win64; x64) AppleWebKit/537.36 (KHTML, like Gecko) Chrome/122.0.0.0 Safari/537.36 Edg/122.0.0.0" etag="qGVfgtFuqN3i6DjF3MW5" version="23.1.6" type="github">
  <diagram name="Page-1" id="krELMuio1fkHTGU1GRgL">
    <mxGraphModel dx="948" dy="521" grid="1" gridSize="10" guides="1" tooltips="1" connect="1" arrows="1" fold="1" page="1" pageScale="1" pageWidth="850" pageHeight="1100" math="0" shadow="0">
      <root>
        <mxCell id="0" />
        <mxCell id="1" parent="0" />
        <mxCell id="aUCiBmImukTTvh4hjps6-1" value="" style="edgeStyle=orthogonalEdgeStyle;rounded=0;orthogonalLoop=1;jettySize=auto;html=1;" edge="1" parent="1" source="aUCiBmImukTTvh4hjps6-2" target="aUCiBmImukTTvh4hjps6-4">
          <mxGeometry relative="1" as="geometry" />
        </mxCell>
        <mxCell id="aUCiBmImukTTvh4hjps6-2" value="" style="ellipse;html=1;shape=startState;fillColor=#000000;strokeColor=#ff0000;" vertex="1" parent="1">
          <mxGeometry x="360" y="80" width="40" height="40" as="geometry" />
        </mxCell>
        <mxCell id="aUCiBmImukTTvh4hjps6-3" value="" style="edgeStyle=orthogonalEdgeStyle;rounded=0;orthogonalLoop=1;jettySize=auto;html=1;" edge="1" parent="1" source="aUCiBmImukTTvh4hjps6-4" target="aUCiBmImukTTvh4hjps6-10">
          <mxGeometry relative="1" as="geometry" />
        </mxCell>
        <mxCell id="aUCiBmImukTTvh4hjps6-4" value="chọn Cập nhật tác giả" style="rounded=1;whiteSpace=wrap;html=1;arcSize=40;fontColor=#000000;fillColor=#ffffc0;strokeColor=#ff0000;" vertex="1" parent="1">
          <mxGeometry x="320" y="160" width="120" height="40" as="geometry" />
        </mxCell>
        <mxCell id="aUCiBmImukTTvh4hjps6-5" value="" style="edgeStyle=orthogonalEdgeStyle;rounded=0;orthogonalLoop=1;jettySize=auto;html=1;" edge="1" parent="1" source="aUCiBmImukTTvh4hjps6-6" target="aUCiBmImukTTvh4hjps6-2">
          <mxGeometry relative="1" as="geometry" />
        </mxCell>
        <mxCell id="aUCiBmImukTTvh4hjps6-6" value="Admin đã đăng nhập&amp;nbsp;" style="html=1;whiteSpace=wrap;" vertex="1" parent="1">
          <mxGeometry x="200" y="80" width="120" height="40" as="geometry" />
        </mxCell>
        <mxCell id="aUCiBmImukTTvh4hjps6-7" style="edgeStyle=orthogonalEdgeStyle;rounded=0;orthogonalLoop=1;jettySize=auto;html=1;exitX=0;exitY=0.5;exitDx=0;exitDy=0;entryX=0.5;entryY=0;entryDx=0;entryDy=0;" edge="1" parent="1" source="aUCiBmImukTTvh4hjps6-10" target="aUCiBmImukTTvh4hjps6-12">
          <mxGeometry relative="1" as="geometry" />
        </mxCell>
        <mxCell id="aUCiBmImukTTvh4hjps6-8" value="" style="edgeStyle=orthogonalEdgeStyle;rounded=0;orthogonalLoop=1;jettySize=auto;html=1;" edge="1" parent="1" source="aUCiBmImukTTvh4hjps6-10" target="aUCiBmImukTTvh4hjps6-14">
          <mxGeometry relative="1" as="geometry" />
        </mxCell>
        <mxCell id="aUCiBmImukTTvh4hjps6-9" style="edgeStyle=orthogonalEdgeStyle;rounded=0;orthogonalLoop=1;jettySize=auto;html=1;exitX=1;exitY=0.5;exitDx=0;exitDy=0;" edge="1" parent="1" source="aUCiBmImukTTvh4hjps6-10" target="aUCiBmImukTTvh4hjps6-16">
          <mxGeometry relative="1" as="geometry" />
        </mxCell>
        <mxCell id="aUCiBmImukTTvh4hjps6-10" value="" style="rhombus;whiteSpace=wrap;html=1;fillColor=#ffffc0;strokeColor=#ff0000;fontColor=#000000;rounded=1;arcSize=0;" vertex="1" parent="1">
          <mxGeometry x="340" y="240" width="80" height="40" as="geometry" />
        </mxCell>
        <mxCell id="aUCiBmImukTTvh4hjps6-11" value="" style="edgeStyle=orthogonalEdgeStyle;rounded=0;orthogonalLoop=1;jettySize=auto;html=1;" edge="1" parent="1" source="aUCiBmImukTTvh4hjps6-12" target="aUCiBmImukTTvh4hjps6-18">
          <mxGeometry relative="1" as="geometry" />
        </mxCell>
        <mxCell id="aUCiBmImukTTvh4hjps6-12" value="chọn Thêm tác giả" style="rounded=1;whiteSpace=wrap;html=1;arcSize=40;fontColor=#000000;fillColor=#ffffc0;strokeColor=#ff0000;" vertex="1" parent="1">
          <mxGeometry x="160" y="320" width="120" height="40" as="geometry" />
        </mxCell>
        <mxCell id="aUCiBmImukTTvh4hjps6-13" value="" style="edgeStyle=orthogonalEdgeStyle;rounded=0;orthogonalLoop=1;jettySize=auto;html=1;" edge="1" parent="1" source="aUCiBmImukTTvh4hjps6-14" target="aUCiBmImukTTvh4hjps6-20">
          <mxGeometry relative="1" as="geometry" />
        </mxCell>
        <mxCell id="aUCiBmImukTTvh4hjps6-14" value="chọn Sửa tác giả" style="rounded=1;whiteSpace=wrap;html=1;arcSize=40;fontColor=#000000;fillColor=#ffffc0;strokeColor=#ff0000;" vertex="1" parent="1">
          <mxGeometry x="320" y="320" width="120" height="40" as="geometry" />
        </mxCell>
        <mxCell id="aUCiBmImukTTvh4hjps6-15" value="" style="edgeStyle=orthogonalEdgeStyle;rounded=0;orthogonalLoop=1;jettySize=auto;html=1;" edge="1" parent="1" source="aUCiBmImukTTvh4hjps6-16" target="aUCiBmImukTTvh4hjps6-22">
          <mxGeometry relative="1" as="geometry" />
        </mxCell>
        <mxCell id="aUCiBmImukTTvh4hjps6-16" value="chọn Xóa tác giả" style="rounded=1;whiteSpace=wrap;html=1;arcSize=40;fontColor=#000000;fillColor=#ffffc0;strokeColor=#ff0000;" vertex="1" parent="1">
          <mxGeometry x="480" y="320" width="120" height="40" as="geometry" />
        </mxCell>
        <mxCell id="aUCiBmImukTTvh4hjps6-17" value="" style="edgeStyle=orthogonalEdgeStyle;rounded=0;orthogonalLoop=1;jettySize=auto;html=1;" edge="1" parent="1" source="aUCiBmImukTTvh4hjps6-18" target="aUCiBmImukTTvh4hjps6-24">
          <mxGeometry relative="1" as="geometry" />
        </mxCell>
        <mxCell id="aUCiBmImukTTvh4hjps6-18" value="điền thông tin" style="rounded=1;whiteSpace=wrap;html=1;arcSize=40;fontColor=#000000;fillColor=#ffffc0;strokeColor=#ff0000;" vertex="1" parent="1">
          <mxGeometry x="160" y="400" width="120" height="40" as="geometry" />
        </mxCell>
        <mxCell id="aUCiBmImukTTvh4hjps6-19" value="" style="edgeStyle=orthogonalEdgeStyle;rounded=0;orthogonalLoop=1;jettySize=auto;html=1;" edge="1" parent="1" source="aUCiBmImukTTvh4hjps6-20" target="aUCiBmImukTTvh4hjps6-26">
          <mxGeometry relative="1" as="geometry" />
        </mxCell>
        <mxCell id="aUCiBmImukTTvh4hjps6-20" value="tìm tên và sửa thông tin" style="rounded=1;whiteSpace=wrap;html=1;arcSize=40;fontColor=#000000;fillColor=#ffffc0;strokeColor=#ff0000;" vertex="1" parent="1">
          <mxGeometry x="320" y="400" width="120" height="40" as="geometry" />
        </mxCell>
        <mxCell id="aUCiBmImukTTvh4hjps6-21" value="" style="edgeStyle=orthogonalEdgeStyle;rounded=0;orthogonalLoop=1;jettySize=auto;html=1;" edge="1" parent="1" source="aUCiBmImukTTvh4hjps6-22" target="aUCiBmImukTTvh4hjps6-28">
          <mxGeometry relative="1" as="geometry" />
        </mxCell>
        <mxCell id="aUCiBmImukTTvh4hjps6-22" value="tìm tên tác giả" style="rounded=1;whiteSpace=wrap;html=1;arcSize=40;fontColor=#000000;fillColor=#ffffc0;strokeColor=#ff0000;" vertex="1" parent="1">
          <mxGeometry x="480" y="400" width="120" height="40" as="geometry" />
        </mxCell>
        <mxCell id="aUCiBmImukTTvh4hjps6-23" style="edgeStyle=orthogonalEdgeStyle;rounded=0;orthogonalLoop=1;jettySize=auto;html=1;exitX=0.5;exitY=1;exitDx=0;exitDy=0;entryX=0;entryY=0.5;entryDx=0;entryDy=0;" edge="1" parent="1" source="aUCiBmImukTTvh4hjps6-24" target="aUCiBmImukTTvh4hjps6-30">
          <mxGeometry relative="1" as="geometry" />
        </mxCell>
        <mxCell id="aUCiBmImukTTvh4hjps6-24" value="xác nhận thêm" style="rounded=1;whiteSpace=wrap;html=1;arcSize=40;fontColor=#000000;fillColor=#ffffc0;strokeColor=#ff0000;" vertex="1" parent="1">
          <mxGeometry x="160" y="480" width="120" height="40" as="geometry" />
        </mxCell>
        <mxCell id="aUCiBmImukTTvh4hjps6-25" style="edgeStyle=orthogonalEdgeStyle;rounded=0;orthogonalLoop=1;jettySize=auto;html=1;exitX=0.5;exitY=1;exitDx=0;exitDy=0;entryX=0.5;entryY=0;entryDx=0;entryDy=0;" edge="1" parent="1" source="aUCiBmImukTTvh4hjps6-26" target="aUCiBmImukTTvh4hjps6-30">
          <mxGeometry relative="1" as="geometry" />
        </mxCell>
        <mxCell id="aUCiBmImukTTvh4hjps6-26" value="xác nhận sửa" style="rounded=1;whiteSpace=wrap;html=1;arcSize=40;fontColor=#000000;fillColor=#ffffc0;strokeColor=#ff0000;" vertex="1" parent="1">
          <mxGeometry x="320" y="480" width="120" height="40" as="geometry" />
        </mxCell>
        <mxCell id="aUCiBmImukTTvh4hjps6-27" style="edgeStyle=orthogonalEdgeStyle;rounded=0;orthogonalLoop=1;jettySize=auto;html=1;exitX=0.5;exitY=1;exitDx=0;exitDy=0;entryX=1;entryY=0.5;entryDx=0;entryDy=0;" edge="1" parent="1" source="aUCiBmImukTTvh4hjps6-28" target="aUCiBmImukTTvh4hjps6-30">
          <mxGeometry relative="1" as="geometry" />
        </mxCell>
        <mxCell id="aUCiBmImukTTvh4hjps6-28" value="xác nhận xóa" style="rounded=1;whiteSpace=wrap;html=1;arcSize=40;fontColor=#000000;fillColor=#ffffc0;strokeColor=#ff0000;" vertex="1" parent="1">
          <mxGeometry x="480" y="480" width="120" height="40" as="geometry" />
        </mxCell>
        <mxCell id="aUCiBmImukTTvh4hjps6-29" style="edgeStyle=orthogonalEdgeStyle;rounded=0;orthogonalLoop=1;jettySize=auto;html=1;exitX=0.5;exitY=1;exitDx=0;exitDy=0;entryX=0.5;entryY=0;entryDx=0;entryDy=0;" edge="1" parent="1" source="aUCiBmImukTTvh4hjps6-30" target="aUCiBmImukTTvh4hjps6-31">
          <mxGeometry relative="1" as="geometry" />
        </mxCell>
        <mxCell id="aUCiBmImukTTvh4hjps6-30" value="" style="rhombus;whiteSpace=wrap;html=1;fontColor=#000000;fillColor=#ffffc0;strokeColor=#ff0000;" vertex="1" parent="1">
          <mxGeometry x="340" y="560" width="80" height="40" as="geometry" />
        </mxCell>
        <mxCell id="aUCiBmImukTTvh4hjps6-31" value="" style="ellipse;html=1;shape=endState;fillColor=#000000;strokeColor=#ff0000;" vertex="1" parent="1">
          <mxGeometry x="365" y="640" width="30" height="30" as="geometry" />
        </mxCell>
        <mxCell id="aUCiBmImukTTvh4hjps6-32" value="" style="edgeStyle=orthogonalEdgeStyle;rounded=0;orthogonalLoop=1;jettySize=auto;html=1;" edge="1" parent="1" source="aUCiBmImukTTvh4hjps6-33" target="aUCiBmImukTTvh4hjps6-31">
          <mxGeometry relative="1" as="geometry" />
        </mxCell>
        <mxCell id="aUCiBmImukTTvh4hjps6-33" value="CSDL Tác giả được cập nhật" style="html=1;whiteSpace=wrap;" vertex="1" parent="1">
          <mxGeometry x="200" y="635" width="120" height="40" as="geometry" />
        </mxCell>
      </root>
    </mxGraphModel>
  </diagram>
</mxfile>
